<svg width="35" height="50" viewBox="0 0 35 50" fill="none" xmlns="http://www.w3.org/2000/svg">
<path d="M27.3539 12.5669C30.986 9.66035 32.8994 6.01569 31.6275 4.42639C30.3556 2.83707 26.3801 3.90496 22.7481 6.81155C19.116 9.71817 17.2027 13.3628 18.4745 14.9521C19.7463 16.5414 23.7218 15.4735 27.3539 12.5669Z" fill="#29C16E"/>
<path d="M15.1722 15.4212C16.2654 14.3281 14.7185 11.0088 11.7172 8.00745C8.71586 5.00613 5.3966 3.45926 4.30345 4.55241C3.21029 5.64556 4.75717 8.96482 7.75852 11.9661C10.7598 14.9675 14.0791 16.5144 15.1722 15.4212Z" fill="#29C16E"/>
<path d="M29.8828 31.5707C31.4722 30.2991 30.4042 26.3236 27.4977 22.6915C24.5911 19.0594 20.9464 17.146 19.3571 18.4179C17.7678 19.6897 18.8357 23.6651 21.7423 27.2971C24.6488 30.9293 28.2936 32.8426 29.8828 31.5707Z" fill="#EF3C56"/>
<path d="M3.56348 32.9406C3.56348 36.7241 5.06648 40.3527 7.74183 43.0279C10.4172 45.7034 14.0457 47.2064 17.8293 47.2064C25.7082 47.2064 37.4687 34.2832 29.9778 31.8459C21.7593 29.1723 17.9689 18.9516 16.2656 18.7606C8.43608 17.882 3.56348 25.0618 3.56348 32.9406Z" fill="#EF3C56"/>
<path d="M0.00691317 2.3836C0.0109439 5.45957 0.837215 8.47853 2.40016 11.1278C3.96309 13.7771 6.20588 15.9604 8.89623 17.4516C7.48624 18.2336 6.19255 19.2089 5.05271 20.3492C2.49567 22.9038 0.806683 26.1977 0.224781 29.7649C-0.357121 33.3321 0.197524 36.9922 1.81022 40.2268C3.42292 43.4615 6.012 46.1072 9.21109 47.7894C12.4102 49.4714 16.0573 50.1051 19.6363 49.6003C23.2153 49.0955 26.545 47.4782 29.1542 44.9768C31.7633 42.4755 33.5196 39.2172 34.1749 35.6626C34.8302 32.1081 34.3511 28.4375 32.8053 25.1703C31.2597 21.9031 28.7255 19.2047 25.5619 17.457C28.2559 15.9679 30.5017 13.7847 32.0666 11.134C33.6314 8.48341 34.458 5.46214 34.4603 2.38407C34.4603 2.10127 34.4048 1.82122 34.2965 1.55993C34.1885 1.29864 34.0298 1.06122 33.8299 0.861234C33.6298 0.661249 33.3923 0.502617 33.131 0.3944C32.87 0.286182 32.5899 0.230499 32.307 0.23053C30.0438 0.224475 27.8017 0.66738 25.7109 1.53361C23.62 2.39984 21.7215 3.67219 20.1256 5.27702C18.9854 6.41688 18.0102 7.7106 17.2282 9.12054C15.7383 6.42916 13.5552 4.18551 10.9057 2.62241C8.2561 1.0593 5.2365 0.233687 2.16022 0.231231C1.8775 0.231169 1.59755 0.286795 1.33633 0.394929C1.07511 0.503062 0.83775 0.661586 0.637795 0.861452C0.437843 1.06132 0.279216 1.29861 0.170969 1.55978C0.0627215 1.82095 0.00697471 2.10089 0.00691317 2.3836ZM19.6063 15.0815C20.0857 12.5203 21.3282 10.1639 23.1706 8.32137C25.013 6.47885 27.3695 5.23629 29.9306 4.75674C29.4476 7.31634 28.2038 9.67082 26.3622 11.5127C24.5204 13.3546 22.1659 14.5984 19.6063 15.0815ZM26.365 23.3988C28.208 25.239 29.4511 27.594 29.9306 30.154C27.3723 29.6703 25.0189 28.427 23.1778 26.5858C21.3367 24.7447 20.0933 22.3916 19.6096 19.8332C22.1696 20.3126 24.5246 21.5556 26.365 23.3988ZM8.09753 23.3945C10.0292 21.4527 12.532 20.1804 15.2392 19.764C15.7467 23.5001 17.4651 26.9669 20.1311 29.633C22.7971 32.2991 26.2636 34.0176 29.9997 34.5253C29.685 36.541 28.8973 38.4536 27.7011 40.1063C26.5052 41.7591 24.9347 43.1052 23.1184 44.0342C21.3021 44.9635 19.2915 45.4493 17.2514 45.4521C15.2112 45.4547 13.1994 44.9745 11.3806 44.0502C9.56182 43.1259 7.98773 41.7841 6.78722 40.1345C5.58668 38.485 4.79383 36.5745 4.47358 34.5597C4.1533 32.5449 4.31473 30.4828 4.9446 28.5423C5.57449 26.6018 6.65494 24.8382 8.09753 23.3955V23.3945ZM4.53524 4.75979C7.09371 5.24341 9.44705 6.48693 11.2882 8.32807C13.1294 10.1692 14.3729 12.5226 14.8565 15.081C12.2982 14.5973 9.945 13.3538 8.10402 11.5126C6.26302 9.67143 5.01969 7.31817 4.53618 4.75979H4.53524Z" fill="#0E1E28"/>
</svg>
