<svg width="100" height="50" viewBox="0 0 100 50" fill="none" xmlns="http://www.w3.org/2000/svg">
<path d="M27.3539 12.5671C30.986 9.66053 32.8994 6.01587 31.6275 4.42657C30.3556 2.83725 26.3801 3.90514 22.7481 6.81173C19.116 9.71835 17.2027 13.363 18.4745 14.9523C19.7463 16.5416 23.7218 15.4737 27.3539 12.5671Z" fill="#29C16E"/>
<path d="M15.1722 15.4214C16.2654 14.3283 14.7185 11.009 11.7172 8.00767C8.71586 5.00635 5.3966 3.45947 4.30345 4.55262C3.21029 5.64578 4.75717 8.96503 7.75852 11.9664C10.7598 14.9677 14.0791 16.5146 15.1722 15.4214Z" fill="#29C16E"/>
<path d="M29.883 31.5711C31.4724 30.2994 30.4045 26.324 27.4979 22.6918C24.5914 19.0597 20.9467 17.1464 19.3574 18.4182C17.768 19.6901 18.8359 23.6655 21.7425 27.2975C24.649 30.9296 28.2938 32.843 29.883 31.5711Z" fill="#EF3C56"/>
<path d="M3.56323 32.9409C3.56323 36.7245 5.06624 40.3531 7.74158 43.0283C10.4169 45.7038 14.0455 47.2067 17.829 47.2067C25.708 47.2067 37.4685 34.2836 29.9776 31.8462C21.759 29.1727 17.9687 18.952 16.2654 18.761C8.43583 17.8823 3.56323 25.0622 3.56323 32.9409Z" fill="#EF3C56"/>
<path d="M0.00691317 2.38379C0.0109439 5.45975 0.837215 8.47872 2.40016 11.128C3.96309 13.7773 6.20588 15.9606 8.89623 17.4518C7.48624 18.2338 6.19255 19.2091 5.05271 20.3494C2.49567 22.9039 0.806683 26.1979 0.224781 29.7651C-0.357121 33.3323 0.197524 36.9923 1.81022 40.227C3.42292 43.4616 6.012 46.1073 9.21109 47.7896C12.4102 49.4716 16.0573 50.1053 19.6363 49.6005C23.2153 49.0957 26.545 47.4784 29.1542 44.977C31.7633 42.4757 33.5196 39.2174 34.1749 35.6628C34.8302 32.1083 34.3511 28.4377 32.8053 25.1705C31.2597 21.9033 28.7255 19.2049 25.5619 17.4572C28.2559 15.9681 30.5017 13.7848 32.0666 11.1342C33.6314 8.48359 34.458 5.46233 34.4603 2.38425C34.4603 2.10145 34.4048 1.8214 34.2965 1.56011C34.1885 1.29882 34.0298 1.0614 33.8299 0.861417C33.6298 0.661432 33.3923 0.5028 33.131 0.394583C32.87 0.286365 32.5899 0.230682 32.307 0.230713C30.0438 0.224658 27.8017 0.667563 25.7109 1.5338C23.62 2.40003 21.7215 3.67237 20.1256 5.2772C18.9854 6.41707 18.0102 7.71079 17.2282 9.12072C15.7383 6.42935 13.5552 4.18569 10.9057 2.6226C8.2561 1.05949 5.2365 0.233871 2.16022 0.231414C1.8775 0.231352 1.59755 0.286978 1.33633 0.395112C1.07511 0.503245 0.83775 0.661769 0.637795 0.861635C0.437843 1.0615 0.279216 1.2988 0.170969 1.55996C0.0627215 1.82114 0.00697471 2.10107 0.00691317 2.38379ZM19.6063 15.0817C20.0857 12.5205 21.3282 10.1641 23.1706 8.32155C25.013 6.47903 27.3695 5.23647 29.9306 4.75692C29.4476 7.31652 28.2038 9.67101 26.3622 11.5129C24.5204 13.3548 22.1659 14.5985 19.6063 15.0817ZM26.365 23.3989C28.208 25.2391 29.4511 27.5942 29.9306 30.1542C27.3723 29.6704 25.0189 28.4272 23.1778 26.586C21.3367 24.7449 20.0933 22.3917 19.6096 19.8334C22.1696 20.3128 24.5246 21.5558 26.365 23.3989ZM8.09753 23.3947C10.0292 21.4528 12.532 20.1805 15.2392 19.7642C15.7467 23.5003 17.4651 26.9671 20.1311 29.6332C22.7971 32.2993 26.2636 34.0178 29.9997 34.5255C29.685 36.5412 28.8973 38.4538 27.7011 40.1065C26.5052 41.7592 24.9347 43.1054 23.1184 44.0344C21.3021 44.9637 19.2915 45.4495 17.2514 45.4523C15.2112 45.4549 13.1994 44.9747 11.3806 44.0504C9.56182 43.126 7.98773 41.7843 6.78722 40.1347C5.58668 38.4852 4.79383 36.5747 4.47358 34.5599C4.1533 32.5451 4.31473 30.483 4.9446 28.5425C5.57449 26.6019 6.65494 24.8384 8.09753 23.3957V23.3947ZM4.53524 4.75997C7.09371 5.2436 9.44705 6.48712 11.2882 8.32826C13.1294 10.1694 14.3729 12.5228 14.8565 15.0812C12.2982 14.5975 9.945 13.3539 8.10402 11.5128C6.26302 9.67161 5.01969 7.31835 4.53618 4.75997H4.53524Z" fill="#0E1E28"/>
<path d="M49.8429 14V10.508H52.2729C55.0809 10.508 57.1689 9.23003 57.1689 6.26003C57.1689 3.21803 55.0449 1.94003 52.2729 1.94003H47.2689V14H49.8429ZM52.1829 4.22603C53.5149 4.22603 54.4689 4.74803 54.4689 6.26003C54.4689 7.68203 53.5149 8.22203 52.1829 8.22203H49.8429V4.22603H52.1829ZM63.1958 14.18C65.1758 14.18 66.3638 13.316 67.0298 12.362L65.4638 10.796C65.1398 11.552 64.4738 12.092 63.2318 12.092C62.0798 12.092 61.2518 11.498 61.0898 10.256H67.1018C67.1558 10.058 67.1918 9.55403 67.1918 9.17603C67.1918 6.87203 65.7878 5.00003 62.9798 5.00003C60.3878 5.00003 58.6778 6.87203 58.6778 9.59003C58.6778 12.308 60.3878 14.18 63.1958 14.18ZM62.9978 6.98003C64.1498 6.98003 64.7798 7.61003 64.8698 8.78003H61.0898C61.2158 7.59203 61.8998 6.98003 62.9978 6.98003ZM72.0306 14V1.94003H69.4566V14H72.0306ZM76.5092 14.198C78.3092 14.198 79.0832 12.866 79.3712 11.714V12.308C79.3712 13.568 80.2352 14 81.1892 14H82.7012V11.948H82.1792C81.8552 11.948 81.7112 11.822 81.7112 11.426V8.40203C81.7112 6.18803 80.4152 5.00003 78.1832 5.00003C76.2932 5.00003 74.8352 5.88203 73.9532 6.83603L75.2492 8.70803C75.8612 7.82603 76.8872 7.19603 78.0032 7.19603C78.9752 7.19603 79.3172 7.61003 79.4072 8.34803L76.7072 9.35603C75.0332 9.93203 74.1872 10.706 74.1872 12.038C74.1872 13.46 75.1412 14.198 76.5092 14.198ZM76.5632 11.66C76.5632 11.318 76.7972 11.066 77.4992 10.778L79.3712 10.004V10.616C79.3712 11.696 78.6872 12.308 77.4632 12.308C76.8512 12.308 76.5632 12.074 76.5632 11.66ZM87.2416 14V9.12203C87.2416 7.68203 87.6376 6.99803 88.8616 6.99803C90.0316 6.99803 90.3196 7.66403 90.3196 8.74403V14H92.8936V7.84403C92.8936 6.02603 91.8676 5.00003 90.1936 5.00003C88.3756 5.00003 87.5296 6.29603 87.2416 7.73603V5.18003H84.6676V14H87.2416ZM52.7229 30V20.226H56.3229V17.94H46.5489V20.226H50.1489V30H52.7229ZM58.89 30.198C60.69 30.198 61.464 28.866 61.752 27.714V28.308C61.752 29.568 62.616 30 63.57 30H65.082V27.948H64.56C64.236 27.948 64.092 27.822 64.092 27.426V24.402C64.092 22.188 62.796 21 60.564 21C58.674 21 57.216 21.882 56.334 22.836L57.63 24.708C58.242 23.826 59.268 23.196 60.384 23.196C61.356 23.196 61.698 23.61 61.788 24.348L59.088 25.356C57.414 25.932 56.568 26.706 56.568 28.038C56.568 29.46 57.522 30.198 58.89 30.198ZM58.944 27.66C58.944 27.318 59.178 27.066 59.88 26.778L61.752 26.004V26.616C61.752 27.696 61.068 28.308 59.844 28.308C59.232 28.308 58.944 28.074 58.944 27.66ZM69.6224 33.348V27.498C69.8564 28.92 70.4864 30.18 72.3224 30.18C74.4824 30.18 75.8144 28.506 75.8144 25.59C75.8144 22.656 74.4824 20.982 72.4304 20.982C70.5944 20.982 69.8744 22.26 69.6224 23.682V21.18H67.0484V33.348H69.6224ZM69.6224 26.058V25.104C69.6224 23.664 70.2164 22.998 71.2964 22.998C72.4664 22.998 73.2044 23.916 73.2044 25.59C73.2044 27.264 72.4664 28.182 71.2964 28.182C70.2164 28.182 69.6224 27.498 69.6224 26.058ZM80.5502 20.136V17.94H77.9762V20.136H80.5502ZM80.5502 30V21.18H77.9762V30H80.5502ZM49.8429 46V42.508H52.2729C55.0809 42.508 57.1689 41.23 57.1689 38.26C57.1689 35.218 55.0449 33.94 52.2729 33.94H47.2689V46H49.8429ZM52.1829 36.226C53.5149 36.226 54.4689 36.748 54.4689 38.26C54.4689 39.682 53.5149 40.222 52.1829 40.222H49.8429V36.226H52.1829ZM61.0521 46.198C62.8521 46.198 63.6261 44.866 63.9141 43.714V44.308C63.9141 45.568 64.7781 46 65.7321 46H67.2441V43.948H66.7221C66.3981 43.948 66.2541 43.822 66.2541 43.426V40.402C66.2541 38.188 64.9581 37 62.7261 37C60.8361 37 59.3781 37.882 58.4961 38.836L59.7921 40.708C60.4041 39.826 61.4301 39.196 62.5461 39.196C63.5181 39.196 63.8601 39.61 63.9501 40.348L61.2501 41.356C59.5761 41.932 58.7301 42.706 58.7301 44.038C58.7301 45.46 59.6841 46.198 61.0521 46.198ZM61.1061 43.66C61.1061 43.318 61.3401 43.066 62.0421 42.778L63.9141 42.004V42.616C63.9141 43.696 63.2301 44.308 62.0061 44.308C61.3941 44.308 61.1061 44.074 61.1061 43.66ZM71.7845 46V41.338C71.7845 39.88 72.6125 38.926 73.4945 38.926C74.0525 38.926 74.2865 39.304 74.2865 39.808C74.2865 40.312 73.9805 40.942 73.6565 41.266H76.1405C76.3565 40.924 76.6445 40.168 76.6445 39.214C76.6445 37.828 75.9245 37 74.6285 37C72.9365 37 72.0725 38.476 71.7845 39.952V37.18H69.2105V46H71.7845ZM82.0307 46.18C83.3807 46.18 84.2807 45.55 84.6587 45.064L83.9207 42.958C83.6507 43.444 83.1647 43.894 82.6067 43.894C82.1027 43.894 81.7427 43.642 81.7427 42.922V39.142H84.1907V37.18H81.7427V34.786L79.1687 36.136V37.18H77.8547V39.142H79.1687V43.39C79.1687 45.028 80.0867 46.18 82.0307 46.18ZM88.3234 49.24C89.9794 49.24 91.0774 48.502 91.7614 46.54L94.9294 37.18H92.0314L90.7894 41.338L90.1234 44.29L89.4754 41.338L88.2154 37.18H85.3714L88.2334 45.424H89.7994L89.6194 45.892C89.3314 46.738 88.9354 46.972 88.2514 46.972C87.4774 46.972 86.8294 46.522 86.2714 45.874L85.2454 48.034C85.8574 48.664 86.9914 49.24 88.3234 49.24ZM98.1312 46V43.21H95.3952V46H98.1312Z" fill="black"/>
</svg>
